<?xml version="1.0" standalone="no"?>
<!DOCTYPE svg PUBLIC "-//W3C//DTD SVG 20010904//EN"
 "http://www.w3.org/TR/2001/REC-SVG-20010904/DTD/svg10.dtd">
<svg version="1.0" xmlns="http://www.w3.org/2000/svg"
 width="121.000000pt" height="121.000000pt" viewBox="0 0 121.000000 121.000000"
 preserveAspectRatio="xMidYMid meet">
<metadata>
Created by potrace 1.16, written by Peter Selinger 2001-2019
</metadata>
<g transform="translate(0.000000,121.000000) scale(0.100000,-0.100000)"
fill="#000000" stroke="none">
<path d="M19 1189 c-20 -20 -21 -28 -15 -116 41 -584 487 -1030 1068 -1069
134 -9 132 -11 136 166 5 183 4 185 -110 194 -46 3 -108 13 -138 22 -30 9 -65
18 -78 21 -18 4 -39 -11 -110 -80 l-88 -86 -44 26 c-151 90 -278 214 -365 359
l-36 59 85 81 c94 89 95 91 71 184 -8 32 -19 98 -24 146 -7 66 -13 91 -27 101
-13 9 -59 13 -161 13 -133 0 -145 -2 -164 -21z"/>
</g>
</svg>
